<svg xmlns="http://www.w3.org/2000/svg" viewBox="0 0 333.27 370.92"><defs><style>.cls-1{fill:#333132;}.cls-2{fill:#414042;}.cls-3{fill:#58595b;}</style></defs><title>Fichier 1</title><g id="Calque_2" data-name="Calque 2"><g id="_1" data-name="1"><path class="cls-1" d="M271.88,151.41c4.92-9.61,60.43,3.94,61.38,22.8s-62.2,5.25-62.2,5.25S262.53,169.68,271.88,151.41Z"/><path class="cls-1" d="M62.6,155.48C58.23,145.61,2.05,156,.05,174.8s61.8,8.73,61.8,8.73S70.91,174.24,62.6,155.48Z"/><path class="cls-1" d="M69.63,328.12s10.13,42.8,22.52,42.8,11.26-32.66,11.26-32.66Z"/><path class="cls-1" d="M251,327s-10.13,42.79-22.52,42.79-11.26-32.66-11.26-32.66Z"/><path class="cls-1" d="M217.39,30.55s18.92-37.74,44.1-23.94-5,56.73-5,56.73Z"/><path class="cls-1" d="M143.51,36S121.07-5.15,88,.54,83.44,65.59,93.6,66.35,143.51,36,143.51,36Z"/><path class="cls-2" d="M172.11,15C41.3,15,31.34,178.34,42.6,243.66s19.14,91.22,40.54,99.11,150.91,5.63,168.93-9S355.68,15,172.11,15Z"/><path class="cls-1" d="M169.86,99.51c-27.59-.57-12.39,24.77,0,25.9s18.3-11.83,18.3-18.58S175.92,99.63,169.86,99.51Z"/><path class="cls-3" d="M164.23,169.33c-76.64-3.41-114.88,156.54-14.64,161S265.59,173.83,164.23,169.33Z"/><circle class="cls-1" cx="127.25" cy="93.31" r="11.26" transform="translate(7.2 195.72) rotate(-76.72)"/><circle class="cls-1" cx="218.47" cy="93.31" r="11.26" transform="translate(-1.99 181.81) rotate(-45)"/></g></g></svg>